<?xml version="1.0" standalone="no"?>
<!DOCTYPE svg PUBLIC "-//W3C//DTD SVG 20010904//EN"
 "http://www.w3.org/TR/2001/REC-SVG-20010904/DTD/svg10.dtd">
<svg version="1.0" xmlns="http://www.w3.org/2000/svg"
 width="512.000000pt" height="512.000000pt" viewBox="0 0 512.000000 512.000000"
 preserveAspectRatio="xMidYMid meet">
<metadata>
Created by potrace 1.14, written by Peter Selinger 2001-2017
</metadata>
<g transform="translate(0.000000,512.000000) scale(0.100000,-0.100000)"
fill="#000000" stroke="none">
<path d="M2414 4145 c-81 -17 -187 -62 -256 -109 -70 -46 -172 -154 -217 -229
-35 -59 -86 -196 -95 -257 -3 -19 -10 -50 -15 -68 -5 -18 -9 -33 -9 -35 1 -2
-16 -78 -47 -211 -8 -32 -16 -61 -19 -63 -5 -5 -24 -8 -151 -18 -44 -3 -91 -8
-105 -10 -14 -2 -54 -6 -90 -9 -36 -4 -74 -8 -86 -10 -12 -2 -45 -7 -75 -11
-83 -11 -232 -36 -404 -70 -223 -44 -420 -107 -585 -188 -115 -56 -183 -112
-227 -186 -27 -45 -28 -49 -27 -191 3 -268 46 -468 145 -670 59 -122 112 -195
209 -290 117 -114 245 -192 500 -303 164 -71 566 -172 800 -202 47 -6 114 -15
140 -20 8 -2 53 -6 100 -10 47 -4 93 -9 103 -11 125 -23 955 -23 1117 1 14 2
59 6 100 10 41 3 102 10 135 15 33 5 83 12 110 15 172 20 532 105 700 165 420
150 659 336 804 628 35 69 76 174 87 225 2 9 6 27 10 40 3 12 7 33 10 47 3 14
9 43 14 65 15 69 24 185 24 321 1 129 1 131 -29 174 -61 88 -196 173 -386 241
-98 35 -269 84 -329 95 -14 3 -52 11 -85 19 -60 15 -311 57 -415 70 -30 4 -62
9 -70 10 -8 2 -44 6 -80 10 -36 3 -81 8 -100 10 -50 6 -168 17 -213 20 -21 1
-42 6 -47 11 -5 5 -30 110 -55 234 -26 124 -58 254 -72 290 -45 122 -138 247
-243 328 -48 37 -155 90 -225 112 -88 27 -262 35 -351 15z"/>
</g>
</svg>
